<?xml version="1.0" encoding="UTF-8" standalone="no"?>
<svg xmlns="http://www.w3.org/2000/svg" xmlns:xlink="http://www.w3.org/1999/xlink" width="132.004" height="132" viewBox="0 0 132 132">
  <defs>
    <linearGradient id="insta-gradient" x1="0%" y1="100%" x2="100%" y2="0%">
      <stop offset="0%" style="stop-color:#405DE6" />
      <stop offset="10%" style="stop-color:#5851DB" />
      <stop offset="22%" style="stop-color:#833AB4" />
      <stop offset="47%" style="stop-color:#C13584" />
      <stop offset="78%" style="stop-color:#E1306C" />
      <stop offset="85%" style="stop-color:#FD1D1D" />
      <stop offset="92%" style="stop-color:#F56040" />
      <stop offset="100%" style="stop-color:#F77737" />
    </linearGradient>
  </defs>
  
  <path fill="url(#insta-gradient)" d="M65.9,0C47.971,0,45.688,0.028,38.741,0.156c-6.94,0.128-11.693,1.418-15.844,3.031
    c-4.293,1.668-7.938,3.902-11.574,7.539c-3.636,3.636-5.869,7.281-7.539,11.574c-1.613,4.152-2.903,8.905-3.031,15.844
    C0.625,45.088,0.597,47.371,0.597,65.3s0.028,20.212,0.156,27.159c0.128,6.939,1.418,11.693,3.031,15.844
    c1.668,4.293,3.903,7.938,7.539,11.574c3.636,3.636,7.281,5.87,11.574,7.539c4.151,1.613,8.904,2.902,15.844,3.031
    c6.947,0.127,9.23,0.156,27.159,0.156s20.212-0.029,27.159-0.156c6.939-0.129,11.693-1.418,15.844-3.031
    c4.293-1.669,7.938-3.903,11.574-7.539c3.636-3.636,5.87-7.281,7.539-11.574c1.613-4.151,2.902-8.905,3.031-15.844
    c0.127-6.947,0.156-9.23,0.156-27.159s-0.029-20.212-0.156-27.159c-0.129-6.939-1.418-11.693-3.031-15.844
    c-1.669-4.293-3.903-7.938-7.539-11.574c-3.636-3.637-7.281-5.871-11.574-7.539c-4.151-1.613-8.905-2.903-15.844-3.031
    C86.112,0.028,83.829,0,65.9,0z M65.9,11.891c17.669,0,19.768,0.067,26.753,0.187c6.453,0.118,9.963,1.373,12.294,2.278
    c3.09,1.201,5.295,2.635,7.612,4.952c2.316,2.316,3.751,4.522,4.952,7.611c0.905,2.331,2.159,5.842,2.278,12.294
    c0.12,6.985,0.187,9.084,0.187,26.753s-0.067,19.768-0.187,26.753c-0.119,6.452-1.373,9.963-2.278,12.294
    c-1.201,3.09-2.635,5.295-4.952,7.611c-2.316,2.317-4.522,3.751-7.612,4.952c-2.331,0.904-5.841,2.159-12.294,2.277
    c-6.985,0.12-9.084,0.187-26.753,0.187s-19.768-0.067-26.753-0.187c-6.453-0.118-9.963-1.373-12.294-2.277
    c-3.09-1.201-5.296-2.635-7.612-4.952c-2.317-2.316-3.751-4.521-4.952-7.611c-0.905-2.331-2.159-5.842-2.278-12.294
    c-0.12-6.985-0.187-9.084-0.187-26.753s0.067-19.768,0.187-26.753c0.119-6.452,1.373-9.963,2.278-12.294
    c1.201-3.089,2.635-5.295,4.952-7.611c2.316-2.317,4.522-3.751,7.612-4.952c2.331-0.905,5.841-2.16,12.294-2.278
    C46.132,11.958,48.231,11.891,65.9,11.891z M65.9,31.736c-18.37,0-33.262,14.89-33.262,33.261S47.53,98.258,65.9,98.258
    c18.37,0,33.262-14.89,33.262-33.261S84.27,31.736,65.9,31.736z M65.9,86.366c-11.846,0-21.451-9.605-21.451-21.452
    c0-11.845,9.605-21.451,21.451-21.451c11.846,0,21.451,9.605,21.451,21.451C87.351,76.762,77.747,86.366,65.9,86.366z
    M107.834,30.391c0,4.294-3.482,7.774-7.775,7.774c-4.294,0-7.776-3.481-7.776-7.774c0-4.294,3.482-7.775,7.776-7.775
    C104.352,22.615,107.834,26.097,107.834,30.391z"></path>
</svg> 